<?xml version="1.0" encoding="UTF-8"?>
<svg version="1.1" xmlns="http://www.w3.org/2000/svg" width="512" height="512">
<path d="M0 0 C1.01790619 0.00215515 2.03581238 0.0043103 3.08456421 0.00653076 C17.69363523 0.05620146 32.02575853 0.30709809 46.375 3.3125 C47.34985352 3.51117676 48.32470703 3.70985352 49.32910156 3.91455078 C97.7109774 14.03517194 141.69928269 35.9516877 177.375 70.3125 C178.3640332 71.26068604 178.3640332 71.26068604 179.37304688 72.22802734 C188.86130305 81.37247479 197.6012044 90.66984009 205.375 101.3125 C206.23306152 102.46355017 207.09113451 103.61459177 207.94921875 104.765625 C213.98736829 112.95680614 219.34595521 121.47054105 224.375 130.3125 C224.73948242 130.94430176 225.10396484 131.57610352 225.47949219 132.22705078 C247.08534998 169.97532572 256.85198095 212.74189997 256.6875 255.9375 C256.68534485 256.95540619 256.6831897 257.97331238 256.68096924 259.02206421 C256.63129854 273.63113523 256.38040191 287.96325853 253.375 302.3125 C253.07698486 303.77478027 253.07698486 303.77478027 252.77294922 305.26660156 C242.65232806 353.6484774 220.7358123 397.63678269 186.375 433.3125 C185.74287598 433.97185547 185.11075195 434.63121094 184.45947266 435.31054688 C175.31502521 444.79880305 166.01765991 453.5387044 155.375 461.3125 C154.22394983 462.17056152 153.07290823 463.02863451 151.921875 463.88671875 C143.73224019 469.92427396 135.22961724 475.30707302 126.375 480.3125 C125.66778809 480.7146875 124.96057617 481.116875 124.23193359 481.53125 C101.09654164 494.5566741 75.92537591 503.30551461 49.9375 508.625 C49.21860596 508.77235596 48.49971191 508.91971191 47.7590332 509.0715332 C33.08339502 511.86090125 18.55831162 512.66142619 3.64770508 512.62817383 C0.70811513 512.6250221 -2.2304558 512.64854926 -5.16992188 512.67382812 C-18.54306192 512.71848737 -31.43916711 511.51301542 -44.625 509.3125 C-46.33055054 509.03031616 -46.33055054 509.03031616 -48.07055664 508.74243164 C-109.33381836 497.7379236 -167.76195468 461.60504511 -204.625 411.3125 C-205.26211914 410.45857666 -205.26211914 410.45857666 -205.91210938 409.58740234 C-212.42768015 400.84658179 -218.26088547 391.80163672 -223.625 382.3125 C-224.0271875 381.60528809 -224.429375 380.89807617 -224.84375 380.16943359 C-237.8691741 357.03404164 -246.61801461 331.86287591 -251.9375 305.875 C-252.08485596 305.15610596 -252.23221191 304.43721191 -252.3840332 303.6965332 C-255.35789088 288.05024391 -255.99800362 272.57681954 -255.9375 256.6875 C-255.93534485 255.66959381 -255.9331897 254.65168762 -255.93096924 253.60293579 C-255.88129854 238.99386477 -255.63040191 224.66174147 -252.625 210.3125 C-252.42632324 209.33764648 -252.22764648 208.36279297 -252.02294922 207.35839844 C-241.90232806 158.9765226 -219.9858123 114.98821731 -185.625 79.3125 C-184.99287598 78.65314453 -184.36075195 77.99378906 -183.70947266 77.31445312 C-174.56502521 67.82619695 -165.26765991 59.0862956 -154.625 51.3125 C-153.47394983 50.45443848 -152.32290823 49.59636549 -151.171875 48.73828125 C-142.98224019 42.70072604 -134.47961724 37.31792698 -125.625 32.3125 C-124.91778809 31.9103125 -124.21057617 31.508125 -123.48193359 31.09375 C-100.34654164 18.0683259 -75.17537591 9.31948539 -49.1875 4 C-48.46860596 3.85264404 -47.74971191 3.70528809 -47.0090332 3.5534668 C-31.36274391 0.57960912 -15.88931954 -0.06050362 0 0 Z " fill="#E34959" transform="translate(255.625,-0.3125)"/>
<path d="M0 0 C1.58874939 -0.01489471 1.58874939 -0.01489471 3.20959473 -0.03009033 C6.71039438 -0.05927791 10.21101277 -0.07292827 13.71191406 -0.08398438 C16.14943444 -0.09549214 18.58695479 -0.10700755 21.0244751 -0.11853027 C26.13546592 -0.13953458 31.24639397 -0.15123007 36.35742188 -0.15820312 C42.89556652 -0.16916772 49.43287711 -0.21721753 55.97076035 -0.27414703 C61.00663653 -0.311459 66.04231301 -0.3218141 71.07831573 -0.32487488 C73.48800464 -0.33091601 75.89769053 -0.34693301 78.30724335 -0.37324524 C81.68463455 -0.40749275 85.06000392 -0.40357758 88.4375 -0.390625 C89.9200528 -0.41826935 89.9200528 -0.41826935 91.43255615 -0.44647217 C98.47013539 -0.36224906 103.25177552 1.5297421 108.47753906 6.32226562 C113.49121978 13.33508284 112.95724557 21.07557435 112.72753906 29.38476562 C112.70949219 30.63193359 112.69144531 31.87910156 112.67285156 33.1640625 C112.62605388 36.21761154 112.56050274 39.26952123 112.47753906 42.32226562 C113.79753906 42.65226562 115.11753906 42.98226562 116.47753906 43.32226562 C50.47753906 109.32226562 -15.52246094 175.32226562 -81.52246094 241.32226562 C-84.80925557 238.18508088 -86.51473259 235.62551036 -88.20996094 231.38476562 C-88.62632813 230.36511719 -89.04269531 229.34546875 -89.47167969 228.29492188 C-91.37989254 222.89659481 -91.68457495 217.82707933 -91.7277832 212.13549805 C-91.7376828 211.32522156 -91.7475824 210.51494507 -91.75778198 209.68011475 C-91.78926713 207.01268393 -91.81410286 204.34523534 -91.83886719 201.67773438 C-91.85944794 199.82399544 -91.8804447 197.97026108 -91.90184021 196.11653137 C-91.9569451 191.24549065 -92.00640533 186.37440839 -92.0546875 181.5032959 C-92.10498724 176.52950356 -92.16062902 171.55577129 -92.21582031 166.58203125 C-92.32326016 156.8288274 -92.42473644 147.07557132 -92.52246094 137.32226562 C-93.26181885 137.7312207 -93.26181885 137.7312207 -94.01611328 138.1484375 C-96.29868973 139.39493199 -98.59736391 140.60842678 -100.89746094 141.82226562 C-102.05955078 142.46615234 -102.05955078 142.46615234 -103.24511719 143.12304688 C-108.95745909 146.09724142 -114.07254432 147.43486546 -120.52246094 146.32226562 C-124.41171173 144.29844277 -126.89787231 141.37266425 -128.52246094 137.32226562 C-128.78988647 134.90750122 -128.78988647 134.90750122 -128.81298828 132.18994141 C-128.82574799 131.16853058 -128.83850769 130.14711975 -128.85165405 129.09475708 C-128.8538797 127.99678802 -128.85610535 126.89881897 -128.85839844 125.76757812 C-128.86505524 124.63327362 -128.87171204 123.49896912 -128.87857056 122.33029175 C-128.88869353 119.93131125 -128.89338769 117.53230261 -128.89306641 115.13330078 C-128.89743628 111.46795097 -128.93375259 107.8038084 -128.97167969 104.13867188 C-128.97754856 101.80664474 -128.98151748 99.47461189 -128.98339844 97.14257812 C-128.99776947 96.04865753 -129.0121405 94.95473694 -129.02694702 93.82766724 C-128.99010082 87.67362811 -128.67227038 83.9873295 -124.52246094 79.32226562 C-121.33991717 76.74182474 -118.77575535 75.90253466 -114.67358398 75.97021484 C-109.9766116 76.73891694 -105.79327553 79.19365811 -101.58496094 81.32226562 C-100.61494141 81.79921875 -99.64492187 82.27617187 -98.64550781 82.76757812 C-96.26480141 83.9403399 -93.89110126 85.12537171 -91.52246094 86.32226562 C-91.46405029 85.65332275 -91.40563965 84.98437988 -91.34545898 84.29516602 C-91.26336182 83.40821045 -91.18126465 82.52125488 -91.09667969 81.60742188 C-91.01764404 80.732229 -90.9386084 79.85703613 -90.85717773 78.95532227 C-89.31853664 66.85157009 -82.11266832 57.73399081 -72.83496094 50.25976562 C-65.35408151 44.76245271 -56.94758561 42.19355332 -47.72013855 42.20201111 C-46.56052612 42.20063644 -45.4009137 42.19926178 -44.2061615 42.19784546 C-42.9430867 42.20144073 -41.6800119 42.20503601 -40.37866211 42.20874023 C-39.02818809 42.20902247 -37.67771392 42.20886367 -36.32723999 42.20829773 C-32.66854835 42.20801116 -29.00988959 42.21388528 -25.35120559 42.22087169 C-21.52485429 42.22712852 -17.69850223 42.22771087 -13.87214661 42.22889709 C-6.62974055 42.23200354 0.61265039 42.24020768 7.85504979 42.25024658 C16.10168148 42.26142904 24.34831389 42.26692355 32.59495127 42.27194202 C49.55582261 42.28239086 66.51667924 42.29997701 83.47753906 42.32226562 C82.81233251 35.66490521 82.81233251 35.66490521 79.39169312 30.21833801 C75.515489 29.02644513 71.86476806 28.93083465 67.85107422 28.98510742 C66.99352036 28.98455353 66.13596649 28.98399963 65.25242615 28.98342896 C63.39507517 28.98368837 61.5377159 28.9905475 59.68040848 29.0032711 C56.73742849 29.02166673 53.79515937 29.0189747 50.85214233 29.01020813 C42.48660293 28.98840934 34.12133657 28.99931616 25.75585938 29.03735352 C20.63405995 29.05916653 15.51296012 29.05189789 10.39118576 29.02689552 C8.44319849 29.02330664 6.49515617 29.03093967 4.54726028 29.0501461 C1.81832202 29.07653074 -0.90825447 29.06602375 -3.63720703 29.04760742 C-4.4364006 29.06454147 -5.23559418 29.08147552 -6.05900574 29.09892273 C-11.48026677 29.00997037 -14.22982101 27.55887591 -18.15709877 23.83509541 C-20.66785058 21.05316677 -21.47678443 18.96052958 -21.58105469 15.22070312 C-21.27598061 9.33572584 -19.82726086 6.33355646 -15.52246094 2.32226562 C-10.66503553 -0.42695385 -5.42142329 0.01216377 0 0 Z " fill="#6C7E89" transform="translate(184.5224609375,115.677734375)"/>
<path d="M0 0 C5.29409971 3.03742286 8.75823474 6.47059285 10.6875 12.3125 C10.94756222 14.90441608 10.94756222 14.90441608 10.96165466 17.71931458 C10.97162979 18.79163834 10.98160492 19.8639621 10.99188232 20.96878052 C10.992547 22.13513031 10.99321167 23.3014801 10.99389648 24.50317383 C11.00222 25.73951065 11.01054352 26.97584747 11.01911926 28.24964905 C11.03907003 31.63414906 11.04985693 35.01840323 11.05494571 38.40294099 C11.0585949 40.52019644 11.06483788 42.63742843 11.0719471 44.75467491 C11.09642615 52.14904184 11.10949003 59.54333877 11.11303711 66.93774414 C11.11667066 73.81738254 11.14655654 80.69657436 11.18844169 87.57607633 C11.22319646 93.49304147 11.23858644 99.40985898 11.23928314 105.32692546 C11.24007424 108.85627327 11.24873462 112.38516589 11.27728081 115.91440773 C11.30843746 119.8543265 11.29937693 123.79360914 11.28686523 127.73364258 C11.30911667 129.47405823 11.30911667 129.47405823 11.33181763 131.24963379 C11.26864663 138.24232796 10.27907416 142.91874129 5.6875 148.3125 C0.77175352 153.1022017 -4.26625411 154.65734304 -11.09790039 154.57617188 C-15.15057841 154.09365702 -18.52517062 152.27411676 -22.125 150.4375 C-22.95338379 150.02967285 -23.78176758 149.6218457 -24.63525391 149.20166016 C-31.76237051 145.66575771 -38.80323111 141.96001763 -45.82421875 138.21875 C-52.85153819 134.48158528 -59.92815649 130.83944704 -67 127.1875 C-68.32211088 126.50441005 -69.64421393 125.82130493 -70.96630859 125.13818359 C-74.08134057 123.52891468 -77.19679285 121.92046139 -80.3125 120.3125 C-80.31660889 120.98603516 -80.32071777 121.65957031 -80.32495117 122.35351562 C-80.70059292 157.62176851 -80.70059292 157.62176851 -93.3125 170.3125 C-94.240625 171.26189453 -94.240625 171.26189453 -95.1875 172.23046875 C-106.31589626 182.75308538 -118.86033145 184.62658542 -133.63500977 184.53955078 C-135.59744881 184.53998886 -135.59744881 184.53998886 -137.59953308 184.54043579 C-141.16092608 184.541006 -144.72218239 184.52930598 -148.28354383 184.51528788 C-152.01510744 184.50272468 -155.74667472 184.50160563 -159.47825623 184.49923706 C-166.53284717 184.49303863 -173.5873756 184.47665014 -180.6419391 184.45653808 C-188.67826179 184.43412792 -196.71458757 184.42317282 -204.75093377 184.41314721 C-221.27149235 184.39228233 -237.79198818 184.35713844 -254.3125 184.3125 C-250.16865678 179.37260998 -245.86160977 174.71840078 -241.29570007 170.16871643 C-240.27226406 169.14294043 -240.27226406 169.14294043 -239.22815257 168.09644169 C-236.95744382 165.82176667 -234.68320444 163.5506561 -232.40893555 161.27954102 C-230.77401871 159.64326828 -229.13931451 158.00678307 -227.50480652 156.37010193 C-223.07781997 151.93856574 -218.64768736 147.51018727 -214.2168386 143.08251309 C-209.58201058 138.45021885 -204.9496251 133.81548305 -200.31684875 129.18113708 C-192.04622495 120.90837973 -183.77288578 112.63834266 -175.49865023 104.3691979 C-167.99044131 96.86546524 -160.48487063 89.35910207 -152.98120117 81.85083008 C-144.26342017 73.12770434 -135.54397081 64.40625189 -126.82203704 55.68727821 C-122.206107 51.07291063 -117.5908635 46.45786183 -112.97736168 41.84106636 C-108.64665448 37.5074831 -104.31353255 33.17632927 -99.97848701 28.84708595 C-98.3832082 27.25313568 -96.78879137 25.65832221 -95.19527435 24.06261063 C-93.03060208 21.89523081 -90.86291394 19.73091482 -88.69438171 17.56739807 C-87.73604393 16.6057142 -87.73604393 16.6057142 -86.75834578 15.62460238 C-82.42665053 11.3125 -82.42665053 11.3125 -81.3125 11.3125 C-80.9825 18.2425 -80.6525 25.1725 -80.3125 32.3125 C-77.50103657 30.85559137 -74.6895841 29.39866159 -71.87817383 27.94165039 C-69.34216298 26.62850195 -66.80404323 25.31954478 -64.2644043 24.01342773 C-57.48375841 20.52310096 -50.71935971 17.0075914 -43.99238586 13.41465759 C-40.68840149 11.65326483 -37.37592675 9.90820923 -34.06234741 8.16494751 C-32.44714081 7.31011175 -30.83575221 6.44801967 -29.22842407 5.57846069 C-10.49463751 -4.54619306 -10.49463751 -4.54619306 0 0 Z " fill="#465459" transform="translate(445.3125,189.6875)"/>
<path d="M0 0 C10.31722133 4.72927687 20.43241906 9.73556018 30.453125 15.0625 C36.78688701 18.42716214 43.14996379 21.73485219 49.5177002 25.03463745 C50.83417407 25.71725579 52.15017772 26.40078178 53.46569824 27.0852356 C55.31978761 28.04983615 57.17531998 29.01160299 59.03125 29.97265625 C60.10955078 30.53218994 61.18785156 31.09172363 62.29882812 31.66821289 C68.56239324 34.75640412 74.34223737 34.46146009 81 33 C71.35384699 55.08388611 58.07541254 74.13053063 41.42871094 91.50830078 C40.11334782 92.88165496 38.8099915 94.2664824 37.5078125 95.65234375 C30.89633025 102.51311139 23.63391668 108.33339093 16 114 C15.45972168 114.40105957 14.91944336 114.80211914 14.36279297 115.21533203 C5.67304932 121.59280635 -3.46797649 126.99455827 -13 132 C-13.65419922 132.34417969 -14.30839844 132.68835938 -14.98242188 133.04296875 C-43.79898561 147.95104236 -75.18640499 154.65806575 -107.4375 154.5 C-108.94577866 154.49635941 -108.94577866 154.49635941 -110.48452759 154.49264526 C-151.10631509 154.30314157 -190.87584888 143.12359189 -224 119 C-218.80250509 108.45467218 -212.60791501 98.90610869 -205.1875 89.8125 C-204.70864727 89.22461071 -204.22979454 88.63672142 -203.73643112 88.0310173 C-190.43195521 72.11621395 -175.37419428 64.27860839 -154.68379486 62.41186965 C-123.07402211 59.86715291 -90.86205742 61.36871179 -59.24581909 63.21600342 C-57.32188812 63.32187287 -57.32188812 63.32187287 -55.35908985 63.4298811 C-52.98951531 63.56394142 -50.62071183 63.71295617 -48.25329876 63.88091755 C-35.42366481 64.60399794 -24.54121369 61.1011967 -14.8125 52.75 C-2.77201572 41.37330964 -0.79129304 28.12778746 -0.25 12.125 C-0.13894236 8.08349155 -0.05289317 4.04267939 0 0 Z " fill="#E7DBD7" transform="translate(364,309)"/>
<path d="M0 0 C2.70681253 0.01609021 5.41212831 0.00002739 8.11889648 -0.01904297 C24.98667263 -0.04103783 41.61912152 1.77432166 57.83569336 6.57861328 C59.4004541 7.03252441 59.4004541 7.03252441 60.99682617 7.49560547 C82.06629429 13.77339454 103.88862786 22.66152382 121.27319336 36.39111328 C117.24333547 41.21311675 113.03940555 45.78568704 108.61279297 50.24438477 C107.97621262 50.88914261 107.33963226 51.53390045 106.6837616 52.19819641 C104.60068261 54.30585792 102.51368108 56.40956401 100.42553711 58.51220703 C99.70913118 59.23393663 98.99272526 59.95566624 98.25461006 60.69926643 C94.47194332 64.50852845 90.68570182 68.31419992 86.89697266 72.11743164 C83.76395392 75.26385576 80.63838918 78.41741401 77.51904297 81.57739258 C73.74304349 85.40255989 69.95505625 89.21544682 66.15796089 93.01967049 C64.71479968 94.46955744 63.27590705 95.92370609 61.84138298 97.38213921 C59.84050064 99.41449187 57.82457939 101.43065916 55.80419922 103.44360352 C55.21445312 104.04975494 54.62470703 104.65590637 54.01708984 105.28042603 C49.9287565 109.30732038 49.9287565 109.30732038 46.36500549 109.76283264 C45.67470749 109.64016525 44.98440948 109.51749786 44.27319336 109.39111328 C44.26384766 108.62033447 44.25450195 107.84955566 44.24487305 107.05541992 C44.19077678 103.52086522 44.10720493 99.98757846 44.02319336 96.45361328 C44.00901367 95.24125 43.99483398 94.02888672 43.98022461 92.77978516 C43.78640898 85.62798852 43.45543902 79.38379776 39.27319336 73.39111328 C33.52522075 68.17902029 27.845994 67.67566133 20.36254883 67.77587891 C19.29812561 67.7703299 18.23370239 67.76478088 17.13702393 67.75906372 C13.63767718 67.74730497 10.13963597 67.77150296 6.64038086 67.79736328 C4.19996194 67.7990752 1.75954119 67.79900787 -0.68087769 67.79724121 C-5.78669916 67.79889224 -10.89208041 67.81755382 -15.99780273 67.84912109 C-22.53931381 67.88883945 -29.08024978 67.89315993 -35.6218586 67.88565826 C-40.65763611 67.88258798 -45.69328454 67.89471061 -50.72903061 67.91178894 C-53.14114446 67.91881439 -55.55327294 67.92194403 -57.96539688 67.9210968 C-61.33551715 67.92289597 -64.70494991 67.94428795 -68.07495117 67.97119141 C-69.0693924 67.9682608 -70.06383362 67.9653302 -71.08840942 67.96231079 C-77.25072209 68.03814863 -81.77375078 68.74354595 -86.53930664 73.01611328 C-88.38166315 76.7008263 -88.84096817 80.28843335 -88.72680664 84.39111328 C-87.1096154 89.15284306 -84.94488058 91.70382767 -80.72680664 94.39111328 C-77.72038182 94.76661509 -75.08528826 94.91572242 -72.08447266 94.87353516 C-71.2253125 94.87744766 -70.36615234 94.88136017 -69.48095703 94.88539124 C-67.62034907 94.89135742 -65.75969435 94.88821213 -63.89911079 94.87696838 C-60.95210506 94.85969561 -58.00607936 94.86722018 -55.05906677 94.88122559 C-47.74078174 94.91086514 -40.42268436 94.89768778 -33.10437012 94.88604736 C-26.91794234 94.87784066 -20.73194295 94.88579493 -14.5455761 94.91517639 C-11.64604327 94.92226469 -8.74726673 94.90559975 -5.84779358 94.88806152 C-4.06470332 94.89377029 -2.28161614 94.90058801 -0.49853516 94.90869141 C0.70564812 94.89171959 0.70564812 94.89171959 1.93415833 94.87440491 C7.1536862 94.93100862 10.12867734 95.93796617 14.27319336 99.39111328 C15.88044971 102.60562597 15.33067521 105.82723864 15.27319336 109.39111328 C14.57911534 109.39257984 13.88503733 109.3940464 13.16992664 109.3955574 C-3.76717931 109.43270972 -20.70405437 109.49183534 -37.64099407 109.57501602 C-45.83179208 109.61472017 -54.02249522 109.64715624 -62.21337891 109.66210938 C-69.35774224 109.67517085 -76.50189606 109.70224919 -83.64614135 109.74572635 C-87.42431386 109.76824085 -91.20222893 109.78403004 -94.98047447 109.78299713 C-98.54702393 109.78224452 -102.11300649 109.80043204 -105.67940903 109.83228111 C-107.5912813 109.84467346 -109.50324931 109.83776313 -111.41514587 109.82997131 C-122.66615543 109.96369066 -132.68409213 112.25198122 -141.82446289 119.02392578 C-143.72680664 120.39111328 -143.72680664 120.39111328 -145.84790039 121.32080078 C-148.23844033 122.68256366 -148.64409225 123.89498094 -149.72680664 126.39111328 C-150.70511915 127.87084502 -151.6843587 129.34996409 -152.66430664 130.82861328 C-156.24512967 136.70640328 -157.46571193 142.69551689 -158.72680664 149.39111328 C-159.04878959 150.72723299 -159.37688104 152.06203805 -159.72680664 153.39111328 C-165.15687489 151.73448229 -170.04522275 149.37513916 -175.07250977 146.78173828 C-179.44014124 144.64505526 -182.76402019 143.8990353 -187.72680664 144.39111328 C-191.64096519 146.49873711 -194.32034503 148.64772856 -196.72680664 152.39111328 C-187.73132582 107.94809417 -156.52046544 67.03484104 -120.72680664 40.39111328 C-119.87344727 39.75431641 -119.02008789 39.11751953 -118.14086914 38.46142578 C-83.78613666 13.69406051 -42.35830118 -0.2977334 0 0 Z " fill="#FDFCFB" transform="translate(252.726806640625,48.60888671875)"/>
<path d="M0 0 C0.33 0 0.66 0 1 0 C1.00364563 0.62560822 1.00729126 1.25121643 1.01104736 1.89578247 C1.05291474 8.4175508 1.12229045 14.93861816 1.20751953 21.45996094 C1.23571451 23.89250675 1.25693632 26.32514392 1.27099609 28.7578125 C1.29244508 32.25828782 1.33910843 35.75766631 1.390625 39.2578125 C1.39185364 40.34240753 1.39308228 41.42700256 1.39434814 42.54446411 C1.51224298 48.64651513 1.85693475 52.39105167 6 57 C10.30663019 59.87108679 13.94363016 59.64435156 19 59 C22.5615096 57.83114928 25.80665822 56.23198717 29.125 54.5 C29.98609375 54.07074219 30.8471875 53.64148438 31.734375 53.19921875 C33.83250595 52.15015327 35.91976743 51.0840017 38 50 C38.00546844 51.53523567 38.00546844 51.53523567 38.01104736 53.10148621 C38.04815408 62.79556202 38.10609624 72.48932477 38.18390274 82.18316174 C38.22323905 87.1656587 38.25549498 92.14798259 38.27099609 97.13061523 C38.28625447 101.94840912 38.32086067 106.76572673 38.36830902 111.58330727 C38.38302881 113.4118464 38.39103555 115.24045356 38.39188385 117.06905174 C38.40315468 129.19364729 38.7871822 140.4195379 45.375 151.0625 C45.91125 152.031875 46.4475 153.00125 47 154 C45.89472936 157.13017615 44.08503101 159.15287864 41.7421875 161.453125 C41.11699219 162.071875 40.49179688 162.690625 39.84765625 163.328125 C39.19667969 163.96234375 38.54570313 164.5965625 37.875 165.25 C37.21628906 165.8996875 36.55757812 166.549375 35.87890625 167.21875 C34.25703357 168.81711727 32.6306719 170.41061897 31 172 C14.42824809 156.80303468 6.09330638 128.83412926 0 108 C-0.25797363 107.12746582 -0.51594727 106.25493164 -0.78173828 105.35595703 C-5.40489061 88.43036565 -6.55239637 71.15116058 -6.4375 53.6875 C-6.43578796 52.75787445 -6.43407593 51.8282489 -6.43231201 50.87045288 C-6.3770083 33.32619643 -4.35428131 17.00523376 0 0 Z " fill="#FBF9F8" transform="translate(55,202)"/>
<path d="M0 0 C1.05916626 -0.00992981 2.11833252 -0.01985962 3.20959473 -0.03009033 C6.71039438 -0.05927791 10.21101277 -0.07292827 13.71191406 -0.08398438 C16.14943444 -0.09549214 18.58695479 -0.10700755 21.0244751 -0.11853027 C26.13546592 -0.13953458 31.24639397 -0.15123007 36.35742188 -0.15820312 C42.89556652 -0.16916772 49.43287711 -0.21721753 55.97076035 -0.27414703 C61.00663653 -0.311459 66.04231301 -0.3218141 71.07831573 -0.32487488 C73.48800464 -0.33091601 75.89769053 -0.34693301 78.30724335 -0.37324524 C81.68463455 -0.40749275 85.06000392 -0.40357758 88.4375 -0.390625 C89.42586853 -0.40905457 90.41423706 -0.42748413 91.43255615 -0.44647217 C98.47013539 -0.36224906 103.25177552 1.5297421 108.47753906 6.32226562 C113.49050088 13.33407728 112.95527394 21.08201539 112.72753906 29.38476562 C112.64503906 33.65414062 112.56253906 37.92351562 112.47753906 42.32226562 C102.90753906 42.32226562 93.33753906 42.32226562 83.47753906 42.32226562 C82.81753906 39.02226562 82.15753906 35.72226563 81.47753906 32.32226562 C78.19590134 29.01218023 74.83762881 28.97580597 70.28514099 28.95219421 C69.08027794 28.96848625 69.08027794 28.96848625 67.85107422 28.98510742 C66.99352036 28.98455353 66.13596649 28.98399963 65.25242615 28.98342896 C63.39507517 28.98368837 61.5377159 28.9905475 59.68040848 29.0032711 C56.73742849 29.02166673 53.79515937 29.0189747 50.85214233 29.01020813 C42.48660293 28.98840934 34.12133657 28.99931616 25.75585938 29.03735352 C20.63405995 29.05916653 15.51296012 29.05189789 10.39118576 29.02689552 C8.44319849 29.02330664 6.49515617 29.03093967 4.54726028 29.0501461 C1.81832202 29.07653074 -0.90825447 29.06602375 -3.63720703 29.04760742 C-4.83599739 29.0730085 -4.83599739 29.0730085 -6.05900574 29.09892273 C-11.48026677 29.00997037 -14.22982101 27.55887591 -18.15709877 23.83509541 C-20.66785058 21.05316677 -21.47678443 18.96052958 -21.58105469 15.22070312 C-21.27598061 9.33572584 -19.82726086 6.33355646 -15.52246094 2.32226562 C-10.66503553 -0.42695385 -5.42142329 0.01216377 0 0 Z " fill="#72848F" transform="translate(184.5224609375,115.677734375)"/>
<path d="M0 0 C13.30653195 12.89579373 21.06565663 33.94552441 27.1875 51.0625 C27.49123535 51.90127686 27.7949707 52.74005371 28.10791016 53.60424805 C28.37522949 54.38582275 28.64254883 55.16739746 28.91796875 55.97265625 C29.27024536 56.99758179 29.27024536 56.99758179 29.62963867 58.04321289 C30.06167249 60.32584378 29.71103877 61.81000058 29 64 C28.443125 62.6696875 28.443125 62.6696875 27.875 61.3125 C25.3354449 56.82595265 22.17321256 54.26770732 17.75 51.6875 C8.85483378 49.46370845 2.4049284 51.60188651 -5.4375 55.875 C-6.38761963 56.37169189 -7.33773926 56.86838379 -8.31665039 57.38012695 C-11.22072227 58.90261957 -14.11006075 60.45089291 -17 62 C-18.70698141 62.89451168 -20.41525339 63.78656631 -22.125 64.67578125 C-28.14995332 67.81537555 -34.15099973 70.99829175 -40.12890625 74.2265625 C-47.30567059 78.09706698 -54.52331204 81.73380812 -62 85 C-64.39909944 77.21386564 -64.80851871 69.72484204 -62 62 C-54.85514628 50.30721072 -43.19399207 40.9271596 -33.25915527 31.67987061 C-29.47725349 28.13532112 -25.76140458 24.52287934 -22.0390625 20.91601562 C-14.75495265 13.87693528 -7.40178812 6.9150885 0 0 Z " fill="#BFB6B4" transform="translate(426,138)"/>
<path d="M0 0 C2.53710175 1.11946554 5.01721283 2.31666117 7.49633789 3.55908203 C8.35420898 3.97158203 9.21208008 4.38408203 10.09594727 4.80908203 C16.36873372 7.86897786 16.36873372 7.86897786 18.68383789 10.18408203 C18.92434692 12.28482056 18.92434692 12.28482056 18.91088867 14.90917969 C18.91073761 15.89004547 18.91058655 16.87091125 18.91043091 17.88150024 C18.90010834 18.94299286 18.88978577 20.00448547 18.87915039 21.09814453 C18.8763205 22.18292084 18.8734906 23.26769714 18.87057495 24.38534546 C18.85935367 27.86003516 18.83424551 31.33446985 18.80883789 34.80908203 C18.79881061 37.16064082 18.78968433 39.51220363 18.78149414 41.86376953 C18.759408 47.63729447 18.72591134 53.41067004 18.68383789 59.18408203 C15.74449139 60.88595188 12.77995433 62.53840376 9.80883789 64.18408203 C8.98641602 64.66103516 8.16399414 65.13798828 7.31665039 65.62939453 C1.47869463 68.82202659 -3.63767432 70.39944377 -10.31616211 69.18408203 C-14.20397495 67.15486785 -16.69071872 64.23661174 -18.31616211 60.18408203 C-18.58358765 57.76931763 -18.58358765 57.76931763 -18.60668945 55.05175781 C-18.61944916 54.03034698 -18.63220886 53.00893616 -18.64535522 51.95657349 C-18.64758087 50.85860443 -18.64980652 49.76063538 -18.65209961 48.62939453 C-18.65875641 47.49509003 -18.66541321 46.36078552 -18.67227173 45.19210815 C-18.68239471 42.79312766 -18.68708886 40.39411902 -18.68676758 37.99511719 C-18.69113745 34.32976738 -18.72745376 30.66562481 -18.76538086 27.00048828 C-18.77124974 24.66846114 -18.77521865 22.33642829 -18.77709961 20.00439453 C-18.79147064 18.91047394 -18.80584167 17.81655334 -18.82064819 16.68948364 C-18.78380199 10.53544452 -18.46597155 6.84914591 -14.31616211 2.18408203 C-9.87859988 -1.4139414 -5.43051193 -1.91301474 0 0 Z " fill="#46585F" transform="translate(74.316162109375,192.81591796875)"/>
<path d="M0 0 C6.14152917 3.33318375 10.10544385 7.24203084 12.23046875 13.9765625 C13.35749417 20.03104788 12.88318734 24.64722709 9.60546875 29.9140625 C6.14609118 34.48567494 2.71826206 37.14729806 -2.76953125 38.9765625 C-10.16919188 39.85430002 -15.84883626 39.52740989 -21.85546875 34.875 C-26.28236274 30.48424392 -28.98484273 25.7068544 -29.33203125 19.4140625 C-28.85466566 12.37598012 -25.86403333 7.70220803 -20.70703125 3.0390625 C-14.74452019 -1.98501112 -7.30574292 -2.69972446 0 0 Z " fill="#BDF257" transform="translate(159.76953125,197.0234375)"/>
<path d="M0 0 C4.98782565 2.96419353 9.05588541 6.85395833 11.67578125 12.09375 C12.64700677 25.61619756 12.64700677 25.61619756 8.67578125 31.09375 C4.92025871 35.34342024 1.35694216 38.68179186 -4.375 39.5625 C-11.71194612 39.63279409 -16.76553676 39.10342636 -22.32421875 34.09375 C-26.66026517 29.52949061 -28.41266708 25.52807635 -28.69921875 19.28125 C-28.56102112 14.11419405 -27.50717336 10.21131178 -24.32421875 6.09375 C-17.49180191 -0.21626877 -9.19398708 -3.58488236 0 0 Z " fill="#FCC401" transform="translate(221.32421875,196.90625)"/>
<path d="M0 0 C14.60971355 21.91457032 9.27121887 68.89874313 4.42544556 93.21047974 C3.39149111 98.16709758 2.25804121 103.09497762 1 108 C0.67 108 0.34 108 0 108 C0 72.36 0 36.72 0 0 Z " fill="#E7DAD5" transform="translate(456,202)"/>
<path d="M0 0 C0 12.54 0 25.08 0 38 C-4.2845806 34.32750234 -8.31480095 30.81271048 -12.27734375 26.85546875 C-13.20224609 25.93185547 -14.12714844 25.00824219 -15.08007812 24.05664062 C-15.7830603 23.35051636 -15.7830603 23.35051636 -16.50024414 22.63012695 C-17.95539571 21.16953741 -19.41591857 19.71446797 -20.87695312 18.25976562 C-22.25077148 16.88401367 -22.25077148 16.88401367 -23.65234375 15.48046875 C-24.48757568 14.64410889 -25.32280762 13.80774902 -26.18334961 12.94604492 C-28 11 -28 11 -28 10 C-26.06640625 9.89365234 -26.06640625 9.89365234 -24.09375 9.78515625 C-18.5780295 9.17241849 -14.33314363 7.05011821 -9.5 4.4375 C-7.90689783 3.60162872 -6.31318214 2.76692531 -4.71875 1.93359375 C-4.02716797 1.56290771 -3.33558594 1.19222168 -2.62304688 0.81030273 C-1 0 -1 0 0 0 Z " fill="#DBD6D4" transform="translate(93,252)"/>
<path d="M0 0 C0.66 0.33 1.32 0.66 2 1 C3.81382944 6.44148833 4.2028873 12.2487595 1.87109375 17.58203125 C-1.75124465 23.28508622 -5.52047878 26.84015959 -12 29 C-14.01906808 29.09416778 -16.04124313 29.12991192 -18.0625 29.125 C-19.12597656 29.12757813 -20.18945312 29.13015625 -21.28515625 29.1328125 C-24 29 -24 29 -26 28 C-24.39626852 23.99482604 -21.57886014 21.3228902 -18.5546875 18.359375 C-17.75987473 17.56880707 -17.75987473 17.56880707 -16.94900513 16.76226807 C-15.26232175 15.08674325 -13.56880436 13.41832278 -11.875 11.75 C-10.72740612 10.61244149 -9.58026539 9.47442564 -8.43359375 8.3359375 C-5.62761863 5.55196535 -2.81549536 2.7743424 0 0 Z " fill="#82D53D" transform="translate(169,207)"/>
<path d="M0 0 C4 2 4 2 6 5 C5.93452173 9.40061178 2.38149535 11.99573831 -0.56640625 14.859375 C-1.11989243 15.40861633 -1.6733786 15.95785767 -2.24363708 16.52374268 C-4.00966559 18.27300464 -5.78584692 20.01153644 -7.5625 21.75 C-8.76305441 22.935505 -9.9629326 24.12169524 -11.16210938 25.30859375 C-14.10029095 28.21373293 -17.04762074 31.10929337 -20 34 C-24.32425093 32.59754024 -25.072973 31.90270266 -28 28 C-18.76 18.76 -9.52 9.52 0 0 Z " fill="#A6E74D" transform="translate(163,200)"/>
<path d="M0 0 C6.40624592 5.26735775 12.18674785 11.09998289 18 17 C18.66 17.66 19.32 18.32 20 19 C17.95234008 21.18257163 15.88896781 23.34513265 13.8125 25.5 C13.23435547 26.12003906 12.65621094 26.74007812 12.06054688 27.37890625 C11.49013672 27.96542969 10.91972656 28.55195313 10.33203125 29.15625 C9.55436401 29.97319336 9.55436401 29.97319336 8.76098633 30.80664062 C6.42825101 32.38745446 4.75658303 32.21378422 2 32 C1.97494385 31.20827393 1.9498877 30.41654785 1.92407227 29.60083008 C1.80784271 26.00456637 1.68523824 22.4085472 1.5625 18.8125 C1.52318359 17.56662109 1.48386719 16.32074219 1.44335938 15.03710938 C1.40146484 13.83505859 1.35957031 12.63300781 1.31640625 11.39453125 C1.27974854 10.28956299 1.24309082 9.18459473 1.20532227 8.04614258 C1.01847344 5.27407028 0.61837634 2.70457127 0 0 Z " fill="#D9D1CF" transform="translate(295,126)"/>
<path d="M0 0 C0.33 0 0.66 0 1 0 C1.73945834 7.32611504 1.22780984 12.1674747 -3.27734375 18.12109375 C-6.73111224 21.88812922 -10.7510001 24.84469408 -16.04296875 25.09765625 C-16.75066406 25.08605469 -17.45835937 25.07445312 -18.1875 25.0625 C-20.0746875 25.0315625 -20.0746875 25.0315625 -22 25 C-17.03926588 19.04403306 -11.69046575 13.64339431 -6.12695312 8.25390625 C-5.48048828 7.61839844 -4.83402344 6.98289063 -4.16796875 6.328125 C-3.58297607 5.7599707 -2.9979834 5.19181641 -2.39526367 4.60644531 C-0.76653917 2.93851704 -0.76653917 2.93851704 0 0 Z " fill="#5CBC31" transform="translate(171,211)"/>
<path d="M0 0 C0.66 0.33 1.32 0.66 2 1 C1.5844157 5.46402906 -1.52613674 7.90601071 -4.56640625 10.859375 C-5.11989243 11.40861633 -5.6733786 11.95785767 -6.24363708 12.52374268 C-8.00966559 14.27300464 -9.78584692 16.01153644 -11.5625 17.75 C-12.76305441 18.935505 -13.9629326 20.12169524 -15.16210938 21.30859375 C-18.10029095 24.21373293 -21.04762074 27.10929337 -24 30 C-24.99 29.67 -25.98 29.34 -27 29 C-25.37843976 24.89891114 -22.4232297 22.16851833 -19.3359375 19.140625 C-18.78386627 18.59138367 -18.23179504 18.04214233 -17.66299438 17.47625732 C-15.90498185 15.72940707 -14.1401311 13.98965399 -12.375 12.25 C-11.1792292 11.06426409 -9.98391135 9.8780712 -8.7890625 8.69140625 C-5.86459747 5.78894915 -2.93398126 2.8928359 0 0 Z " fill="#90DC43" transform="translate(167,204)"/>
<path d="M0 0 C2.35043586 1.98070437 4.67822804 3.98581322 7 6 C7.825 6.70125 8.65 7.4025 9.5 8.125 C11 10 11 10 10.9375 11.765625 C9.54928839 15.07419601 7.06580479 17.20784385 4.5 19.625 C0.79727917 22.95724215 0.79727917 22.95724215 -2 27 C-2.66 26.67 -3.32 26.34 -4 26 C-3.360625 25.071875 -2.72125 24.14375 -2.0625 23.1875 C0.82321192 18.7277634 1.13684675 15.7809935 1.125 10.5625 C1.12757813 9.42941406 1.13015625 8.29632813 1.1328125 7.12890625 C1.02325193 4.54778817 0.75864877 2.45055595 0 0 Z " fill="#626764" transform="translate(231,205)"/>
<path d="M0 0 C0.66 0.33 1.32 0.66 2 1 C-1.96 4.96 -5.92 8.92 -10 13 C-13.49353838 11.25323081 -15.13945763 10.08594785 -17.75 7.375 C-18.36359375 6.74335938 -18.9771875 6.11171875 -19.609375 5.4609375 C-20.29773438 4.73777344 -20.29773438 4.73777344 -21 4 C-16.73121752 2.57707251 -12.69149813 3.08332076 -8.2265625 3.2578125 C-4.65412231 2.97236328 -2.96034899 1.91428928 0 0 Z " fill="#677071" transform="translate(225,232)"/>
<path d="M0 0 C0.33 0 0.66 0 1 0 C1.4225606 3.85003582 1.34415643 5.52203837 -0.95605469 8.71655273 C-1.85227539 9.61317627 -2.74849609 10.5097998 -3.671875 11.43359375 C-4.15070129 11.91578873 -4.62952759 12.3979837 -5.12286377 12.89479065 C-6.13454271 13.90617156 -7.15368139 14.91013886 -8.1796875 15.90698242 C-9.75062226 17.43810649 -11.28995039 18.99658869 -12.828125 20.56054688 C-13.81596068 21.54082677 -14.80548878 22.51940477 -15.796875 23.49609375 C-16.69760742 24.38482178 -17.59833984 25.2735498 -18.52636719 26.18920898 C-21 28 -21 28 -23.32519531 27.78149414 C-24.15422363 27.39465454 -24.15422363 27.39465454 -25 27 C-24.27820557 26.2886792 -23.55641113 25.5773584 -22.81274414 24.84448242 C-20.13710993 22.20503786 -17.46809156 19.55898836 -14.80102539 16.91088867 C-13.64559549 15.76551869 -12.48837724 14.62194986 -11.3293457 13.48022461 C-9.66404787 11.83917523 -8.00528082 10.19176406 -6.34765625 8.54296875 C-5.82784683 8.0334819 -5.30803741 7.52399506 -4.7724762 6.99906921 C-2.44285114 4.67017668 -1.05771017 3.17313052 0 0 Z " fill="#75CD38" transform="translate(170,208)"/>
<path d="M0 0 C0.33 0.99 0.66 1.98 1 3 C-7.91 11.91 -16.82 20.82 -26 30 C-26.99 29.67 -27.98 29.34 -29 29 C-19.33333333 19.33333333 -9.66666667 9.66666667 0 0 Z " fill="#9BE149" transform="translate(166,202)"/>
<path d="M0 0 C0.33 1.32 0.66 2.64 1 4 C-0.4753418 6.12231445 -0.4753418 6.12231445 -2.69921875 8.36328125 C-3.49650391 9.16701172 -4.29378906 9.97074219 -5.11523438 10.79882812 C-5.96408203 11.62833984 -6.81292969 12.45785156 -7.6875 13.3125 C-8.51701172 14.16134766 -9.34652344 15.01019531 -10.20117188 15.88476562 C-11.00490234 16.68205078 -11.80863281 17.47933594 -12.63671875 18.30078125 C-13.37623779 19.03466064 -14.11575684 19.76854004 -14.87768555 20.5246582 C-15.57804932 21.011521 -16.27841309 21.49838379 -17 22 C-18.32 21.67 -19.64 21.34 -21 21 C-14.07 14.07 -7.14 7.14 0 0 Z " fill="#68C732" transform="translate(170,214)"/>
</svg>
